<svg xmlns="http://www.w3.org/2000/svg" width="768" height="200" viewBox="0 0 768 200" role="img" aria-labelledby="title desc" font-family="ui-monospace, SFMono-Regular, 'SF Mono', Menlo, Consolas, 'Liberation Mono', monospace">
  <title id="title">Sofía Rodríguez — Estudiante de Ingeniería Civil Informática</title>
  <desc id="desc">Cabecera del perfil: Sofía Rodríguez, Estudiante de Ingeniería Civil Informática. Áreas de trabajo: software · frontend · ia · datos.</desc>
  <rect x="0.5" y="0.5" width="767" height="199" rx="10" fill="#0B0C10" stroke="#22252E"/>
  <text x="26" y="44" font-size="13" fill="#5A6070">~/sofia <tspan fill="#8B7BFF">%</tspan>
    <set attributeName="opacity" to="0" begin="0s"/>
    <animate attributeName="opacity" from="0" to="1" begin="0.0s" dur="0.4s" fill="freeze"/>
    <animateTransform attributeName="transform" type="translate" from="0 0" to="0 0" begin="0.0s" dur="0.4s" calcMode="spline" keySplines="0.16 1 0.3 1" fill="freeze"/>
  </text>
  <defs>
    <clipPath id="typing">
      <rect x="104.0" y="30" width="46.8" height="20">
        <set attributeName="width" to="0" begin="0s"/>
        <animate attributeName="width" values="0.0;7.8;15.6;23.4;31.2;39.0;46.8" calcMode="discrete" begin="0.35s" dur="0.6s" fill="freeze"/>
      </rect>
    </clipPath>
  </defs>
  <text x="104.0" y="44" font-size="13" fill="#9AA1B1" clip-path="url(#typing)">whoami</text>
  <rect x="152.8" y="33" width="7" height="13" fill="#8B7BFF" opacity="0">
    <animate attributeName="opacity" values="0;1" begin="0.35s" dur="0.01s" fill="freeze"/>
    <animate attributeName="opacity" values="1;0;1" begin="0.95s" dur="0.9s" repeatCount="2"/>
    <animate attributeName="opacity" values="1;0" begin="2.75s" dur="0.3s" fill="freeze"/>
  </rect>
  <text x="26" y="106" font-size="34" fill="#E9EBF1" letter-spacing="1.5">SOFÍA RODRÍGUEZ
    <set attributeName="opacity" to="0" begin="0s"/>
    <animate attributeName="opacity" from="0" to="1" begin="1.0s" dur="0.5s" fill="freeze"/>
    <animateTransform attributeName="transform" type="translate" from="0 6" to="0 0" begin="1.0s" dur="0.5s" calcMode="spline" keySplines="0.16 1 0.3 1" fill="freeze"/>
  </text>
  <text x="26" y="134" font-size="14" fill="#9AA1B1">Estudiante de Ingeniería Civil Informática
    <set attributeName="opacity" to="0" begin="0s"/>
    <animate attributeName="opacity" from="0" to="1" begin="1.15s" dur="0.5s" fill="freeze"/>
    <animateTransform attributeName="transform" type="translate" from="0 6" to="0 0" begin="1.15s" dur="0.5s" calcMode="spline" keySplines="0.16 1 0.3 1" fill="freeze"/>
  </text>
  <text x="26" y="166" font-size="12.5" fill="#5A6070" letter-spacing="0.6">software · frontend · ia · datos
    <set attributeName="opacity" to="0" begin="0s"/>
    <animate attributeName="opacity" from="0" to="1" begin="1.3s" dur="0.5s" fill="freeze"/>
    <animateTransform attributeName="transform" type="translate" from="0 6" to="0 0" begin="1.3s" dur="0.5s" calcMode="spline" keySplines="0.16 1 0.3 1" fill="freeze"/>
  </text>
  <g>
    <set attributeName="opacity" to="0" begin="0s"/>
    <animate attributeName="opacity" from="0" to="1" begin="1.45s" dur="0.7s" fill="freeze"/>
    <animateTransform attributeName="transform" type="translate" from="0 0" to="0 0" begin="1.45s" dur="0.7s" calcMode="spline" keySplines="0.16 1 0.3 1" fill="freeze"/>
    <rect x="675" y="66.5" width="11" height="11" rx="2" fill="#8B7BFF" opacity="0.85"/>
    <rect x="689" y="66.5" width="11" height="11" rx="2" fill="#8B7BFF" opacity="0.85"/>
    <rect x="703" y="66.5" width="11" height="11" rx="2" fill="#8B7BFF" opacity="0.85"/>
    <rect x="717" y="66.5" width="11" height="11" rx="2" fill="#8B7BFF" opacity="0.85"/>
    <rect x="731" y="66.5" width="11" height="11" rx="2" fill="#8B7BFF" opacity="0.85"/>
    <rect x="675" y="80.5" width="11" height="11" rx="2" fill="#8B7BFF" opacity="0.85"/>
    <rect x="689" y="80.5" width="11" height="11" rx="2" fill="#111319" opacity="1"/>
    <rect x="703" y="80.5" width="11" height="11" rx="2" fill="#111319" opacity="1"/>
    <rect x="717" y="80.5" width="11" height="11" rx="2" fill="#111319" opacity="1"/>
    <rect x="731" y="80.5" width="11" height="11" rx="2" fill="#111319" opacity="1"/>
    <rect x="675" y="94.5" width="11" height="11" rx="2" fill="#8B7BFF" opacity="0.85"/>
    <rect x="689" y="94.5" width="11" height="11" rx="2" fill="#8B7BFF" opacity="0.85"/>
    <rect x="703" y="94.5" width="11" height="11" rx="2" fill="#8B7BFF" opacity="0.85"/>
    <rect x="717" y="94.5" width="11" height="11" rx="2" fill="#8B7BFF" opacity="0.85"/>
    <rect x="731" y="94.5" width="11" height="11" rx="2" fill="#8B7BFF" opacity="0.85"/>
    <rect x="675" y="108.5" width="11" height="11" rx="2" fill="#111319" opacity="1"/>
    <rect x="689" y="108.5" width="11" height="11" rx="2" fill="#111319" opacity="1"/>
    <rect x="703" y="108.5" width="11" height="11" rx="2" fill="#111319" opacity="1"/>
    <rect x="717" y="108.5" width="11" height="11" rx="2" fill="#111319" opacity="1"/>
    <rect x="731" y="108.5" width="11" height="11" rx="2" fill="#8B7BFF" opacity="0.85"/>
    <rect x="675" y="122.5" width="11" height="11" rx="2" fill="#8B7BFF" opacity="0.85"/>
    <rect x="689" y="122.5" width="11" height="11" rx="2" fill="#8B7BFF" opacity="0.85"/>
    <rect x="703" y="122.5" width="11" height="11" rx="2" fill="#8B7BFF" opacity="0.85"/>
    <rect x="717" y="122.5" width="11" height="11" rx="2" fill="#8B7BFF" opacity="0.85"/>
    <rect x="731" y="122.5" width="11" height="11" rx="2" fill="#8B7BFF" opacity="0.85"/>
  </g>
</svg>
